<?xml version="1.0" encoding="UTF-8" standalone="no"?>
<svg
   xmlns:dc="http://purl.org/dc/elements/1.1/"
   xmlns:cc="http://creativecommons.org/ns#"
   xmlns:rdf="http://www.w3.org/1999/02/22-rdf-syntax-ns#"
   xmlns:svg="http://www.w3.org/2000/svg"
   xmlns="http://www.w3.org/2000/svg"
   xmlns:xlink="http://www.w3.org/1999/xlink"
   xmlns:sodipodi="http://sodipodi.sourceforge.net/DTD/sodipodi-0.dtd"
   xmlns:inkscape="http://www.inkscape.org/namespaces/inkscape"
   version="1.1"
   viewBox="-90000 0 0 220"
   id="svg2"
   inkscape:version="0.91 r13725"
   sodipodi:docname="boxy.svg"
   width="300"
   height="300"
   inkscape:export-filename="/home/erik/Code/ex/assets/icon19.png"
   inkscape:export-xdpi="5.6999998"
   inkscape:export-ydpi="5.6999998">
  <sodipodi:namedview
     pagecolor="#ffffff"
     bordercolor="#666666"
     borderopacity="1"
     objecttolerance="10"
     gridtolerance="10"
     guidetolerance="10"
     inkscape:pageopacity="0"
     inkscape:pageshadow="2"
     inkscape:window-width="1280"
     inkscape:window-height="998"
     id="namedview54"
     showgrid="false"
     inkscape:snap-bbox="true"
     inkscape:bbox-paths="true"
     inkscape:snap-bbox-edge-midpoints="true"
     inkscape:snap-bbox-midpoints="true"
     inkscape:object-paths="true"
     inkscape:snap-intersection-paths="true"
     inkscape:object-nodes="true"
     inkscape:snap-smooth-nodes="true"
     inkscape:snap-midpoints="true"
     inkscape:snap-object-midpoints="true"
     inkscape:snap-center="true"
     inkscape:zoom="1.0727273"
     inkscape:cx="212.44982"
     inkscape:cy="228.18675"
     inkscape:window-x="1600"
     inkscape:window-y="0"
     inkscape:window-maximized="1"
     inkscape:current-layer="g16" />
  <metadata
     id="metadata4">
    <rdf:RDF>
      <cc:Work
         rdf:about="">
        <dc:format>image/svg+xml</dc:format>
        <dc:type
           rdf:resource="http://purl.org/dc/dcmitype/StillImage" />
        <dc:title />
      </cc:Work>
    </rdf:RDF>
  </metadata>
  <defs
     id="defs6">
    <linearGradient
       id="linearGradient4172"
       inkscape:collect="always">
      <stop
         id="stop4174"
         offset="0"
         style="stop-color:#0000ff;stop-opacity:1" />
      <stop
         id="stop4176"
         offset="1"
         style="stop-color:#ffffff;stop-opacity:1" />
    </linearGradient>
    <linearGradient
       id="linearGradient2166">
      <stop
         offset="0"
         style="stop-color:#009300"
         id="stop5428" />
      <stop
         offset="1"
         style="stop-color:#00cd00"
         id="stop5430" />
    </linearGradient>
    <linearGradient
       id="linearGradient3788">
      <stop
         stop-color="#453106"
         offset="0"
         id="stop9" />
      <stop
         stop-color="#bc8510"
         offset="1"
         id="stop11" />
    </linearGradient>
    <linearGradient
       id="linearGradient3836"
       y2="329.88"
       xlink:href="#linearGradient3788"
       gradientUnits="userSpaceOnUse"
       x2="421"
       y1="217.88"
       x1="264.28"
       gradientTransform="matrix(1,0,0,0.82062803,0,82.56594)" />
    <radialGradient
       id="radialGradient3780"
       xlink:href="#linearGradient3788"
       gradientUnits="userSpaceOnUse"
       cy="260.82458"
       cx="455.81848"
       gradientTransform="matrix(21.674432,0.32793182,-0.1767174,7.865678,-9209.4263,-2196.7605)"
       r="72.579002"
       fx="455.81848"
       fy="260.82458" />
    <radialGradient
       inkscape:collect="always"
       xlink:href="#linearGradient3788"
       id="radialGradient3799"
       cx="344.2673"
       cy="353.83127"
       fx="344.2673"
       fy="353.83127"
       r="20.938499"
       gradientTransform="matrix(1.9349425,-1.1359529e-6,2.8892891e-6,3.3142971,-322.07811,-854.37741)"
       gradientUnits="userSpaceOnUse" />
    <linearGradient
       id="linearGradient5432">
      <stop
         id="stop2168"
         style="stop-color:#009300"
         offset="0" />
      <stop
         id="stop2170"
         style="stop-color:#00cd00"
         offset="1" />
    </linearGradient>
    <filter
       style="color-interpolation-filters:sRGB;"
       inkscape:label="Lightness-Contrast"
       id="filter4546">
      <feColorMatrix
         values="0.9988 0 0 0.252149 0.0006 0 0.9988 0 0.252149 0.0006 0 0 0.9988 0.252149 0.0006 0 0 0 1 0"
         id="feColorMatrix4548" />
    </filter>
    <linearGradient
       inkscape:collect="always"
       xlink:href="#linearGradient4172"
       id="linearGradient5454"
       x1="397.54565"
       y1="314.79996"
       x2="676.50208"
       y2="78.780464"
       gradientUnits="userSpaceOnUse" />
  </defs>
  <g
     transform="translate(-278.7977,-160.2971)"
     id="g16">
    <path
       d="m 518.53,331.26547 -62.537,-12.81903 -2.4718,95.32415 59.908,30.97543 z"
       id="path26"
       inkscape:connector-curvature="0"
       style="fill:#72520b" />
    <path
       d="m 497.5345,281.08817 -41.098,37.14081 64.014,13.23837 48.338,-45.06397 z"
       id="path22"
       inkscape:connector-curvature="0"
       style="fill:#df9e13" />
    <!-- end nu -->
    <path
       d="m 319.76,287.05824 13.581,34.44504 123.19,-3.1787 -19.712,-32.06768 z"
       id="path52"
       inkscape:connector-curvature="0"
       style="fill:#da9a13" />
    <path
       d="m 456.53,318.32417 -123.19,3.1787 -0.2233,1.02102 123.02,-3.24279 z"
       id="path18"
       inkscape:connector-curvature="0"
       style="fill:#b38111" />
    <path
       d="m 456.15499,317.71288 -122.44614,2.31457 2.15065,103.37871 39.328,36.89954 78.338,-46.53043 z"
       id="path20"
       inkscape:connector-curvature="0"
       style="fill:url(#linearGradient3836)"
       sodipodi:nodetypes="cccccc" />
    <path
       d="m 333.34,321.5 -13.581,-34.44504 -0.189,1.01224 13.546,34.45407 z"
       id="path24"
       inkscape:connector-curvature="0"
       style="fill:#3d2c06" />
    <path
       d="m 568.88,286.50021 -48.338,45.06397 1.1024,1.0234 48.272,-45.03114 z"
       id="path28"
       inkscape:connector-curvature="0"
       style="fill:#72520b" />
    <path
       d="m 333.34,321.5 41.877,14.9026 0.9185,-0.20425 -41.359,-14.62277 z"
       id="path30"
       style="fill:#523b08;fill-opacity:1"
       inkscape:connector-curvature="0" />
    <path
       d="m 309.16,378.2136 -30.367,-22.99482 1.0035,1.07412 30.564,23.21639 z"
       id="path32"
       inkscape:connector-curvature="0"
       style="fill:#0b0801" />
    <path
       d="m 375.22,336.4026 145.13,-5.04801 -1.8119,-0.0954 -142.4,4.9392 z"
       id="path36"
       inkscape:connector-curvature="0"
       style="fill:#221803" />
    <path
       d="m 558.22,364.71427 -156.73,8.8554 -0.3023,1.53047 156.52,-8.97767 z"
       id="path40"
       inkscape:connector-curvature="0"
       style="fill:#72520b" />
    <path
       d="m 520.35,331.37215 -63.813,-13.04798 -0.5355,0.11907 62.537,12.81903 z"
       id="path44"
       inkscape:connector-curvature="0"
       style="fill:#3d2c06" />
    <path
       inkscape:connector-curvature="0"
       id="path2174"
       sodipodi:nodetypes="cscccccsc"
       style="fill:#5656d8;fill-rule:evenodd;filter:url(#filter4546);fill-opacity:1"
       d="m 405.98359,396.9596 c 0,0 -40.81084,-28.172 -13.63733,-118.05444 17.9497,-59.36973 64.54408,-73.86649 64.54408,-73.86649 l -19.50427,-34.87312 91.66957,42.98474 -29.52688,80.09238 -20.88444,-36.93577 c 0,0 -37.79268,52.80511 -26.74632,88.7045 11.04635,35.89938 -21.06138,58.85406 -45.91441,51.9482 z"
       transform="matrix(1.2041977,0,0,1.2041977,-90.490766,-42.68205)" />
    <path
       inkscape:connector-curvature="0"
       id="path1404"
       sodipodi:nodetypes="cscccccsc"
       style="fill:url(#linearGradient5454);fill-rule:evenodd;filter:url(#filter4546);fill-opacity:1"
       d="m 405.98359,396.9596 c 0,0 -38.21989,-26.09923 -11.04636,-115.97914 17.9497,-59.37226 67.65576,-75.94179 67.65576,-75.94179 l -17.94969,-27.61336 78.69958,37.27955 -24.8505,71.79877 -19.32985,-35.89938 c 0,0 -41.42257,57.98957 -30.37622,93.88896 11.04635,35.89938 -17.94969,59.37225 -42.80272,52.46639 z"
       transform="matrix(1.2041977,0,0,1.2041977,-90.490766,-42.68205)" />
    <path
       d="m 334.73,423.98823 40.453,36.30787 0.0323,-123.89022 -41.877,-14.9026 z"
       id="path46"
       style="fill:url(#radialGradient3799);fill-opacity:1"
       inkscape:connector-curvature="0" />
    <path
       d="m 333.59,321.5 -54.788,33.72124 30.367,22.99482 66.04598,-41.81029 z"
       id="path48"
       inkscape:connector-curvature="0"
       style="fill:#eba716"
       sodipodi:nodetypes="ccccc" />
    <path
       d="m 375.22,336.4026 -66.346,41.81757 1.4903,1.2869 64.6113,-41.66673 z"
       id="path50"
       style="fill:#8b630c;fill-opacity:1"
       inkscape:connector-curvature="0"
       sodipodi:nodetypes="ccccc" />
    <path
       d="m 401.49,373.56885 -26.281,-37.16953 -0.2334,1.44102 26.212,37.25898 z"
       id="path42"
       inkscape:connector-curvature="0"
       style="fill:#523b08" />
    <path
       d="m 375.2,336.4026 26.281,37.16953 156.73,-8.8554 -37.897,-33.36181 z"
       id="path38"
       inkscape:connector-curvature="0"
       style="fill:#dc9c13" />
    <path
       d="m 375.19,460.30102 139.62,-14.57435 5.54,-114.37093 -145.13,5.04686 z"
       id="path34"
       style="fill:url(#radialGradient3780);fill-opacity:1"
       inkscape:connector-curvature="0" />
  </g>
</svg>
